name MotionFile_C_Latbend5Degr 
datacolumns 7 
datarows 100
range 0.000000 1.000000
endheader
time	flex_extension 	 lat_bending 	 axial_rotation	flex_extension_u 	 lat_bending_u 	 axial_rotation_u	
	 0.000000	 0.000000	 0.000000	 0.000000	 0.000000	 31.415927	 0.000000
	 0.010101	 0.000000	 0.317120	 0.000000	 0.000000	 31.352676	 0.000000
	 0.020202	 0.000000	 0.632962	 0.000000	 0.000000	 31.163180	 0.000000
	 0.030303	 0.000000	 0.946256	 0.000000	 0.000000	 30.848200	 0.000000
	 0.040404	 0.000000	 1.255740	 0.000000	 0.000000	 30.409005	 0.000000
	 0.050505	 0.000000	 1.560167	 0.000000	 0.000000	 29.847364	 0.000000
	 0.060606	 0.000000	 1.858312	 0.000000	 0.000000	 29.165539	 0.000000
	 0.070707	 0.000000	 2.148975	 0.000000	 0.000000	 28.366274	 0.000000
	 0.080808	 0.000000	 2.430984	 0.000000	 0.000000	 27.452788	 0.000000
	 0.090909	 0.000000	 2.703204	 0.000000	 0.000000	 26.428759	 0.000000
	 0.101010	 0.000000	 2.964540	 0.000000	 0.000000	 25.298311	 0.000000
	 0.111111	 0.000000	 3.213938	 0.000000	 0.000000	 24.065996	 0.000000
	 0.121212	 0.000000	 3.450395	 0.000000	 0.000000	 22.736775	 0.000000
	 0.131313	 0.000000	 3.672959	 0.000000	 0.000000	 21.316002	 0.000000
	 0.141414	 0.000000	 3.880732	 0.000000	 0.000000	 19.809396	 0.000000
	 0.151515	 0.000000	 4.072880	 0.000000	 0.000000	 18.223025	 0.000000
	 0.161616	 0.000000	 4.248627	 0.000000	 0.000000	 16.563277	 0.000000
	 0.171717	 0.000000	 4.407267	 0.000000	 0.000000	 14.836833	 0.000000
	 0.181818	 0.000000	 4.548160	 0.000000	 0.000000	 13.050648	 0.000000
	 0.191919	 0.000000	 4.670739	 0.000000	 0.000000	 11.211911	 0.000000
	 0.202020	 0.000000	 4.774511	 0.000000	 0.000000	 9.328029	 0.000000
	 0.212121	 0.000000	 4.859058	 0.000000	 0.000000	 7.406585	 0.000000
	 0.222222	 0.000000	 4.924039	 0.000000	 0.000000	 5.455318	 0.000000
	 0.232323	 0.000000	 4.969192	 0.000000	 0.000000	 3.482085	 0.000000
	 0.242424	 0.000000	 4.994337	 0.000000	 0.000000	 1.494830	 0.000000
	 0.252525	 0.000000	 4.999371	 0.000000	 0.000000	 -0.498444	 0.000000
	 0.262626	 0.000000	 4.984274	 0.000000	 0.000000	 -2.489711	 0.000000
	 0.272727	 0.000000	 4.949107	 0.000000	 0.000000	 -4.470953	 0.000000
	 0.282828	 0.000000	 4.894012	 0.000000	 0.000000	 -6.434191	 0.000000
	 0.292929	 0.000000	 4.819211	 0.000000	 0.000000	 -8.371522	 0.000000
	 0.303030	 0.000000	 4.725004	 0.000000	 0.000000	 -10.275143	 0.000000
	 0.313131	 0.000000	 4.611771	 0.000000	 0.000000	 -12.137390	 0.000000
	 0.323232	 0.000000	 4.479969	 0.000000	 0.000000	 -13.950764	 0.000000
	 0.333333	 0.000000	 4.330127	 0.000000	 0.000000	 -15.707963	 0.000000
	 0.343434	 0.000000	 4.162849	 0.000000	 0.000000	 -17.401912	 0.000000
	 0.353535	 0.000000	 3.978809	 0.000000	 0.000000	 -19.025789	 0.000000
	 0.363636	 0.000000	 3.778748	 0.000000	 0.000000	 -20.573057	 0.000000
	 0.373737	 0.000000	 3.563471	 0.000000	 0.000000	 -22.037484	 0.000000
	 0.383838	 0.000000	 3.333845	 0.000000	 0.000000	 -23.413173	 0.000000
	 0.393939	 0.000000	 3.090795	 0.000000	 0.000000	 -24.694586	 0.000000
	 0.404040	 0.000000	 2.835299	 0.000000	 0.000000	 -25.876563	 0.000000
	 0.414141	 0.000000	 2.568387	 0.000000	 0.000000	 -26.954344	 0.000000
	 0.424242	 0.000000	 2.291133	 0.000000	 0.000000	 -27.923589	 0.000000
	 0.434343	 0.000000	 2.004653	 0.000000	 0.000000	 -28.780396	 0.000000
	 0.444444	 0.000000	 1.710101	 0.000000	 0.000000	 -29.521314	 0.000000
	 0.454545	 0.000000	 1.408663	 0.000000	 0.000000	 -30.143361	 0.000000
	 0.464646	 0.000000	 1.101553	 0.000000	 0.000000	 -30.644031	 0.000000
	 0.474747	 0.000000	 0.790007	 0.000000	 0.000000	 -31.021308	 0.000000
	 0.484848	 0.000000	 0.475280	 0.000000	 0.000000	 -31.273673	 0.000000
	 0.494949	 0.000000	 0.158640	 0.000000	 0.000000	 -31.400110	 0.000000
	 0.505051	 0.000000	 -0.158640	 0.000000	 0.000000	 -31.400110	 0.000000
	 0.515152	 0.000000	 -0.475280	 0.000000	 0.000000	 -31.273673	 0.000000
	 0.525253	 0.000000	 -0.790007	 0.000000	 0.000000	 -31.021308	 0.000000
	 0.535354	 0.000000	 -1.101553	 0.000000	 0.000000	 -30.644031	 0.000000
	 0.545455	 0.000000	 -1.408663	 0.000000	 0.000000	 -30.143361	 0.000000
	 0.555556	 0.000000	 -1.710101	 0.000000	 0.000000	 -29.521314	 0.000000
	 0.565657	 0.000000	 -2.004653	 0.000000	 0.000000	 -28.780396	 0.000000
	 0.575758	 0.000000	 -2.291133	 0.000000	 0.000000	 -27.923589	 0.000000
	 0.585859	 0.000000	 -2.568387	 0.000000	 0.000000	 -26.954344	 0.000000
	 0.595960	 0.000000	 -2.835299	 0.000000	 0.000000	 -25.876563	 0.000000
	 0.606061	 0.000000	 -3.090795	 0.000000	 0.000000	 -24.694586	 0.000000
	 0.616162	 0.000000	 -3.333845	 0.000000	 0.000000	 -23.413173	 0.000000
	 0.626263	 0.000000	 -3.563471	 0.000000	 0.000000	 -22.037484	 0.000000
	 0.636364	 0.000000	 -3.778748	 0.000000	 0.000000	 -20.573057	 0.000000
	 0.646465	 0.000000	 -3.978809	 0.000000	 0.000000	 -19.025789	 0.000000
	 0.656566	 0.000000	 -4.162849	 0.000000	 0.000000	 -17.401912	 0.000000
	 0.666667	 0.000000	 -4.330127	 0.000000	 0.000000	 -15.707963	 0.000000
	 0.676768	 0.000000	 -4.479969	 0.000000	 0.000000	 -13.950764	 0.000000
	 0.686869	 0.000000	 -4.611771	 0.000000	 0.000000	 -12.137390	 0.000000
	 0.696970	 0.000000	 -4.725004	 0.000000	 0.000000	 -10.275143	 0.000000
	 0.707071	 0.000000	 -4.819211	 0.000000	 0.000000	 -8.371522	 0.000000
	 0.717172	 0.000000	 -4.894012	 0.000000	 0.000000	 -6.434191	 0.000000
	 0.727273	 0.000000	 -4.949107	 0.000000	 0.000000	 -4.470953	 0.000000
	 0.737374	 0.000000	 -4.984274	 0.000000	 0.000000	 -2.489711	 0.000000
	 0.747475	 0.000000	 -4.999371	 0.000000	 0.000000	 -0.498444	 0.000000
	 0.757576	 0.000000	 -4.994337	 0.000000	 0.000000	 1.494830	 0.000000
	 0.767677	 0.000000	 -4.969192	 0.000000	 0.000000	 3.482085	 0.000000
	 0.777778	 0.000000	 -4.924039	 0.000000	 0.000000	 5.455318	 0.000000
	 0.787879	 0.000000	 -4.859058	 0.000000	 0.000000	 7.406585	 0.000000
	 0.797980	 0.000000	 -4.774511	 0.000000	 0.000000	 9.328029	 0.000000
	 0.808081	 0.000000	 -4.670739	 0.000000	 0.000000	 11.211911	 0.000000
	 0.818182	 0.000000	 -4.548160	 0.000000	 0.000000	 13.050648	 0.000000
	 0.828283	 0.000000	 -4.407267	 0.000000	 0.000000	 14.836833	 0.000000
	 0.838384	 0.000000	 -4.248627	 0.000000	 0.000000	 16.563277	 0.000000
	 0.848485	 0.000000	 -4.072880	 0.000000	 0.000000	 18.223025	 0.000000
	 0.858586	 0.000000	 -3.880732	 0.000000	 0.000000	 19.809396	 0.000000
	 0.868687	 0.000000	 -3.672959	 0.000000	 0.000000	 21.316002	 0.000000
	 0.878788	 0.000000	 -3.450395	 0.000000	 0.000000	 22.736775	 0.000000
	 0.888889	 0.000000	 -3.213938	 0.000000	 0.000000	 24.065996	 0.000000
	 0.898990	 0.000000	 -2.964540	 0.000000	 0.000000	 25.298311	 0.000000
	 0.909091	 0.000000	 -2.703204	 0.000000	 0.000000	 26.428759	 0.000000
	 0.919192	 0.000000	 -2.430984	 0.000000	 0.000000	 27.452788	 0.000000
	 0.929293	 0.000000	 -2.148975	 0.000000	 0.000000	 28.366274	 0.000000
	 0.939394	 0.000000	 -1.858312	 0.000000	 0.000000	 29.165539	 0.000000
	 0.949495	 0.000000	 -1.560167	 0.000000	 0.000000	 29.847364	 0.000000
	 0.959596	 0.000000	 -1.255740	 0.000000	 0.000000	 30.409005	 0.000000
	 0.969697	 0.000000	 -0.946256	 0.000000	 0.000000	 30.848200	 0.000000
	 0.979798	 0.000000	 -0.632962	 0.000000	 0.000000	 31.163180	 0.000000
	 0.989899	 0.000000	 -0.317120	 0.000000	 0.000000	 31.352676	 0.000000
	 1.000000	 0.000000	 -0.000000	 0.000000	 0.000000	 31.415927	 0.000000
